<?xml version="1.0" encoding="utf-8"?>
<!-- Generator: Adobe Illustrator 16.0.0, SVG Export Plug-In . SVG Version: 6.00 Build 0)  -->
<!DOCTYPE svg PUBLIC "-//W3C//DTD SVG 1.1//EN" "http://www.w3.org/Graphics/SVG/1.1/DTD/svg11.dtd">
<svg version="1.1" id="Layer_1" xmlns="http://www.w3.org/2000/svg" xmlns:xlink="http://www.w3.org/1999/xlink" x="0px" y="0px"
	 width="289px" height="80px" viewBox="0 0 289 80" enable-background="new 0 0 289 80" xml:space="preserve">
<g>
	<defs>
		<rect id="SVGID_1_" y="7.456" width="289" height="65.024"/>
	</defs>
	<clipPath id="SVGID_2_">
		<use xlink:href="#SVGID_1_"  overflow="visible"/>
	</clipPath>
	<g id="Group_6" clip-path="url(#SVGID_2_)">
		<g id="Group_1" transform="translate(36.504 -15.891)">
			<path id="Path_1" fill="#FFFFFF" d="M51.41,50.101v-5.539c0-2.649-2.167-4.817-4.816-4.817l0,0c-2.649,0-4.817,2.167-4.817,4.817
				l0,0v7.225c-3.131,0.482-6.262,1.205-9.633,1.686V28.185c0-2.649-2.167-4.816-5.057-4.816l0,0l0,0
				c-2.649,0-4.817,2.167-4.817,4.816v27.696c-0.241,0-0.723,0-0.963,0.241c-3.131,0.722-5.78,1.204-8.67,1.927V36.615
				c0-2.649-2.167-4.816-4.817-4.816l0,0c-2.649,0-4.576,2.167-4.816,4.816v23.602C-0.61,60.939-3.5,61.42-6.631,61.903V51.065
				c0-2.649-2.167-4.817-4.817-4.817c-2.649,0-4.816,2.167-4.816,4.817v12.282c-10.837,1.204-17.099,0.964-17.822-1.204
				c-1.445-3.371,8.429-7.947,11.319-9.393l0,0h-0.241c-2.89,0.963-15.172,6.021-13.486,10.355
				c1.445,4.817,20.23,6.021,59.486-3.371c32.753-8.188,47.926-9.633,49.371-6.502c1.204,2.649-6.984,7.707-14.932,11.079
				c0,0-0.241,0.24-0.241,0.481c0.241,0.241,0.481,0.481,0.723,0.241c2.89-0.964,17.821-7.226,17.099-12.524
				C74.289,48.897,66.582,47.934,51.41,50.101 M-16.024,72.981v3.612c0,2.649,2.167,4.816,4.817,4.575
				c2.649,0,4.576-2.167,4.576-4.575v-4.817C-9.521,72.498-12.893,72.74-16.024,72.981 M3.243,70.331v13.245
				c0,2.65,1.927,4.817,4.576,4.817l0,0c2.649,0,4.817-1.927,4.817-4.575v-0.242V68.405C9.505,69.127,6.374,69.85,3.243,70.331"/>
		</g>
		<g id="Group_2" transform="translate(24.719 -9.202)">
			<path id="Path_2" fill="#FFFFFF" d="M34.813,59.522H34.09v9.393c0,2.648,2.408,4.816,5.058,4.816
				c2.649,0,4.576-2.168,4.816-4.816V57.354C41.074,58.077,38.184,58.558,34.813,59.522 M53.357,55.186v5.539
				c0,2.649,2.408,4.816,5.058,4.816l0,0c2.649,0,4.816-2.167,4.816-4.816v-7.465C60.341,53.983,56.969,54.464,53.357,55.186"/>
		</g>
		<g id="Group_3" transform="translate(64.302 -15.478)">
			<path id="Path_3" fill="#FFFFFF" d="M90.559,50.683c-0.482-0.482-0.964-0.963-1.687-1.204c-0.723-0.241-1.444-0.482-2.167-0.482
				s-1.687,0.241-2.408,0.482c-0.723,0.241-1.205,0.722-1.928,1.445c-0.481,0.482-0.963,1.204-1.203,1.927
				c0,0.963-0.241,1.686-0.241,2.649c0,0.963,0.241,1.686,0.481,2.649c0.24,0.723,0.723,1.444,1.204,1.927
				c0.481,0.481,1.204,0.963,1.687,1.445c0.722,0.24,1.444,0.48,2.167,0.48c0.722,0,1.686-0.24,2.408-0.48
				c0.964-0.482,1.444-1.205,1.927-1.687l3.612,2.649c-0.722,1.204-1.927,1.927-3.131,2.648c-1.204,0.482-2.649,0.723-4.095,0.723
				c-1.444,0-2.889-0.24-4.334-0.723c-1.205-0.48-2.409-1.203-3.372-2.167c-0.963-0.722-1.686-1.927-2.167-3.131
				c-0.481-1.444-0.963-2.89-0.723-4.335c0-1.445,0.241-2.89,0.723-4.335c0.482-1.204,1.204-2.408,2.167-3.372
				s2.167-1.686,3.372-2.167c1.445-0.481,2.89-0.723,4.334-0.723c0.482,0,1.205,0,1.687,0.241c0.723,0,1.204,0.241,1.687,0.481
				c0.722,0.241,1.444,0.481,1.926,0.963c0.482,0.241,0.963,0.723,1.445,1.445L90.559,50.683z"/>
		</g>
		<g id="Group_4" transform="translate(67.909 -13.494)">
			<path id="Path_4" fill="#FFFFFF" d="M95.638,53.477c0-1.445,0.242-2.89,0.723-4.335c0.482-1.204,1.205-2.408,2.168-3.372
				c1.204-0.963,2.168-1.686,3.612-1.927c1.445-0.481,2.89-0.722,4.335-0.722s2.891,0.241,4.336,0.722
				c1.203,0.482,2.408,1.204,3.371,2.167s1.686,2.167,2.168,3.372c0.48,1.204,0.722,2.649,0.722,4.094s-0.241,2.89-0.722,4.335
				c-0.482,1.204-1.205,2.408-2.168,3.371c-0.963,0.964-2.168,1.686-3.613,1.927c-1.203,0.481-2.648,0.723-4.094,0.723
				s-3.131-0.241-4.335-0.723s-2.408-1.204-3.372-2.167c-0.963-0.723-1.926-1.927-2.408-3.131
				C95.88,56.367,95.638,54.922,95.638,53.477 M100.214,53.477c0,0.963,0.241,1.686,0.482,2.65c0.24,0.723,0.723,1.444,1.203,1.926
				c0.482,0.482,1.205,0.964,1.928,1.445c0.723,0.24,1.686,0.482,2.648,0.482s1.686-0.242,2.649-0.482
				c0.723-0.24,1.444-0.723,1.927-1.445c0.481-0.481,0.963-1.203,1.204-1.926c0.241-0.964,0.241-1.687,0.241-2.65
				s0-1.686-0.482-2.649c-0.24-0.723-0.481-1.445-1.203-1.927c-0.482-0.481-1.205-0.963-1.928-1.445
				c-0.723-0.241-1.686-0.482-2.408-0.482c-0.963,0-1.686,0.241-2.648,0.482c-0.723,0.481-1.445,0.963-1.928,1.445
				c-0.48,0.482-0.963,1.204-1.203,1.927C100.214,51.791,100.214,52.514,100.214,53.477"/>
		</g>
		<g id="Group_5" transform="translate(87.004 -9.946)">
			<path id="Path_5" fill="#FFFFFF" d="M122.531,58.473c-1.205,0.723-2.65,1.205-4.095,1.445c-1.444,0.241-2.89,0.482-4.335,0.482
				s-2.891-0.241-4.335-0.723c-1.204-0.482-2.408-1.205-3.372-2.168c-0.963-0.963-1.686-2.168-2.167-3.371
				c-0.481-1.445-0.723-2.891-0.723-4.335s0.241-2.89,0.723-4.335c0.481-1.204,1.204-2.408,2.167-3.372
				c0.964-0.963,2.168-1.686,3.372-2.167c1.444-0.482,2.89-0.723,4.335-0.723s2.891,0.241,4.335,0.481
				c1.204,0.482,2.408,0.963,3.612,1.927l-3.131,3.372c-0.481-0.241-1.204-0.722-1.926-0.963c-0.964-0.241-1.928-0.482-2.891-0.482
				s-1.686,0.241-2.649,0.482c-0.722,0.241-1.444,0.722-1.927,1.445c-0.481,0.481-0.963,1.204-1.203,1.927
				c-0.242,0.722-0.242,1.686-0.242,2.408c0,0.963,0,1.927,0.242,2.649c0.24,0.723,0.722,1.445,1.203,1.927
				c0.482,0.482,1.205,0.963,1.927,1.445c0.723,0.24,1.687,0.481,2.649,0.481c0.723,0,1.686,0,2.408-0.241
				c0.723-0.24,1.204-0.481,1.686-0.723v-3.131h-3.612v-4.094h7.948V58.473z"/>
		</g>
	</g>
</g>
<g id="Group_7" transform="translate(90.062 -17.626)">
	<path id="Path_7" fill="#FFFFFF" d="M126.837,47.658h6.021l8.43,13.728l0,0V47.658h4.334v19.99h-5.539l-8.91-14.209l0,0v14.209
		h-4.335V47.658z"/>
</g>
<path id="Path_8" fill="#FFFFFF" d="M243.242,30.095h4.334v19.989h-4.334V30.095z"/>
<g id="Group_8" transform="translate(107.546 -16.015)">
	<path id="Path_9" fill="#FFFFFF" d="M151.461,49.927h-5.78v-3.853h15.654v3.853h-5.539v16.135h-4.335V49.927z"/>
</g>
<g id="Group_9" transform="translate(114.176 -17.626)">
	<path id="Path_10" fill="#FFFFFF" d="M160.798,47.658v19.99h13.969v-4.095h-9.634v-4.095h8.67v-4.093h-8.67v-3.613h9.152v-4.094
		H160.798z"/>
</g>
</svg>
